#define frog_width 38
#define frog_height 33
static char frog_bits[] = {
 0x00,0x00,0x00,0x00,0x00,0x00,0x00,0x00,0x00,0x00,0x00,0x00,0x00,0x00,0x00,
 0x00,0xf0,0xc0,0x03,0x00,0x00,0x98,0x61,0x06,0x00,0x00,0xc8,0x21,0x07,0x00,
 0x00,0xe4,0x93,0x0f,0x00,0x00,0xe4,0x93,0x0f,0x00,0x00,0xe4,0x93,0x0f,0x00,
 0x00,0xe4,0x93,0x0f,0x00,0x00,0xcc,0x33,0x0f,0x00,0x00,0x98,0x61,0x06,0x00,
 0x00,0xfc,0xc0,0x0b,0x00,0x00,0x04,0x00,0x08,0x00,0x00,0x02,0x00,0x10,0x00,
 0x00,0x02,0x00,0x10,0x00,0x00,0xe2,0xff,0x10,0x00,0x00,0x02,0x00,0x10,0x00,
 0x00,0x02,0x00,0x10,0x00,0x00,0x04,0x00,0x08,0x00,0x00,0x0c,0x00,0x0c,0x00,
 0x00,0x04,0x00,0x08,0x00,0x00,0x02,0x00,0x10,0x00,0x00,0x01,0x00,0x20,0x00,
 0x80,0x00,0x00,0x60,0x00,0x80,0x00,0x00,0xc0,0x00,0x00,0x01,0x00,0x60,0x00,
 0x00,0x02,0x00,0x30,0x00,0x00,0x06,0x00,0x18,0x00,0xf8,0x05,0x00,0xf8,0x07,
 0x00,0x00,0x00,0x00,0x00,0x00,0x00,0x00,0x00,0x00,0x00,0x00,0x00,0x00,0x00
 };
