#define fs_width 32
#define fs_height 32
static char fs_bits[] = {
   0x00, 0x3e, 0x00, 0x00, 0x80, 0xc1, 0x00, 0x00, 0x60, 0x00, 0x03, 0x00,
   0x10, 0x00, 0x04, 0x00, 0x10, 0x00, 0x04, 0x00, 0x08, 0x00, 0x78, 0x00,
   0x88, 0x00, 0xc8, 0x00, 0xe4, 0x03, 0x90, 0x00, 0xf4, 0x07, 0x10, 0x01,
   0xf4, 0x07, 0x30, 0x01, 0xfc, 0x0f, 0x30, 0x01, 0xf4, 0x07, 0x90, 0x01,
   0xf8, 0x07, 0x98, 0x01, 0xe8, 0x03, 0xc8, 0x00, 0x90, 0x00, 0x7c, 0x01,
   0x10, 0x00, 0x04, 0x01, 0x60, 0x00, 0x03, 0x02, 0xc0, 0xc1, 0x00, 0x02,
   0x40, 0xfe, 0x00, 0x02, 0x40, 0xe0, 0x0f, 0x02, 0x40, 0x9c, 0x11, 0x02,
   0x80, 0x80, 0x01, 0x01, 0x80, 0x01, 0x03, 0x01, 0x80, 0x00, 0x83, 0x01,
   0x40, 0x00, 0x86, 0x03, 0x20, 0x00, 0x86, 0x04, 0x10, 0x00, 0x4c, 0x0c,
   0x10, 0x00, 0x2c, 0x18, 0x20, 0x00, 0x38, 0x0c, 0x40, 0x00, 0x18, 0x06,
   0xc0, 0x00, 0x00, 0x03, 0xbe, 0x00, 0x00, 0x7f};
