#define prev_width 16
#define prev_height 32
static char prev_bits[] = {
   0x00, 0x00, 0x80, 0x01, 0xc0, 0x03, 0xe0, 0x07, 0xf0, 0x0f, 0xf8, 0x1f,
   0xfc, 0x3f, 0xfe, 0x7f, 0xff, 0xff, 0xe0, 0x07, 0xe0, 0x07, 0xe0, 0x07,
   0xe0, 0x07, 0xe0, 0x07, 0xe0, 0x07, 0xe0, 0x07, 0xe0, 0x07, 0xe0, 0x07,
   0xe0, 0x07, 0xe0, 0x07, 0xe0, 0x07, 0xe0, 0x07, 0xe0, 0x07, 0xe0, 0x07,
   0xe0, 0x07, 0xe0, 0x07, 0xe0, 0x07, 0xe0, 0x07, 0xe0, 0x07, 0xe0, 0x07,
   0xe0, 0x07, 0x00, 0x00};
